<?xml version="1.0" standalone="no"?>
<!DOCTYPE svg PUBLIC "-//W3C//DTD SVG 20010904//EN"
 "http://www.w3.org/TR/2001/REC-SVG-20010904/DTD/svg10.dtd">
<svg version="1.0" xmlns="http://www.w3.org/2000/svg"
 width="512.000000pt" height="512.000000pt" viewBox="0 0 512.000000 512.000000"
 preserveAspectRatio="xMidYMid meet">
<metadata>
Created by potrace 1.14, written by Peter Selinger 2001-2017
</metadata>
<g transform="translate(0.000000,512.000000) scale(0.100000,-0.100000)"
fill="#000000" stroke="none">
<path d="M2417 5110 l-118 -6 -1139 -1139 c-1027 -1027 -1140 -1143 -1145
-1177 -11 -63 -8 -396 5 -508 30 -277 118 -586 238 -833 516 -1070 1686 -1638
2857 -1387 141 30 401 119 536 182 583 275 1048 768 1282 1358 287 723 238
1532 -134 2202 -327 588 -862 1015 -1521 1213 -246 74 -571 110 -861 95z m403
-1453 c290 -64 453 -182 527 -383 19 -52 26 -95 30 -179 6 -125 -8 -197 -56
-292 -35 -70 -131 -165 -199 -196 l-50 -23 52 -18 c147 -52 249 -170 292 -337
20 -76 14 -239 -12 -333 -52 -196 -200 -338 -419 -406 -140 -43 -246 -50 -787
-50 l-508 0 0 1121 0 1120 528 -4 c439 -3 539 -7 602 -20z"/>
<path d="M2230 3004 l0 -256 208 5 c117 2 223 9 243 16 57 18 102 53 129 101
21 38 25 58 25 130 0 69 -4 94 -24 133 -49 100 -133 127 -398 127 l-183 0 0
-256z"/>
<path d="M2230 2125 l0 -265 218 0 c245 0 297 9 358 62 59 52 79 101 79 193 0
100 -22 161 -75 209 -63 57 -112 66 -362 66 l-218 0 0 -265z"/>
</g>
</svg>
